<svg width="264" height="226" viewBox="0 0 264 226" fill="none" xmlns="http://www.w3.org/2000/svg">
<path d="M234.5 21.9562C213.261 19.6689 166.204 20.1363 144.763 39.7489C144.023 40.4255 142.916 40.5074 142.111 39.9093C124.389 26.7332 81.754 1.78878 37.1677 8.68354C36.2057 8.8323 35.5 9.66744 35.5 10.6409V16.9562M35.5 16.9562V173.158C35.5 174.181 36.2514 175.037 37.2687 175.139C63.2666 177.748 122.003 180.801 143.5 216.956M35.5 16.9562H9.5C8.39543 16.9562 7.5 17.8516 7.5 18.9562V200.697C7.5 201.898 8.54125 202.828 9.73449 202.696C42.5122 199.053 90.7127 201.316 143.5 216.956M143.5 216.956C177.5 194.956 204.9 194.356 234.5 191.956M182.5 146.956H234.5M189.5 104.956H239.5M213.5 64.9562H256.5M105.5 87.9562V108.668C105.5 109.453 105.958 110.165 106.672 110.489L116.5 114.956" stroke="currentColor" stroke-width="15" stroke-linecap="round"/>
<circle cx="103" cy="105.456" r="43" stroke="currentColor" stroke-width="15"/>
</svg>
